<?xml version="1.0" standalone="no"?>
<!DOCTYPE svg PUBLIC "-//W3C//DTD SVG 20010904//EN"
 "http://www.w3.org/TR/2001/REC-SVG-20010904/DTD/svg10.dtd">
<svg version="1.0" xmlns="http://www.w3.org/2000/svg"
 width="16.000000pt" height="16.000000pt" viewBox="0 0 16.000000 16.000000"
 preserveAspectRatio="xMidYMid meet">
<metadata>
Created by potrace 1.11, written by Peter Selinger 2001-2013
</metadata>
<g transform="translate(0.000000,16.000000) scale(0.003125,-0.003125)"
fill="#000000" stroke="none">
<path d="M1455 4390 c-207 -32 -428 -144 -582 -297 -135 -133 -249 -330 -298
-514 -57 -215 -45 -573 20 -644 43 -46 107 -45 151 2 28 30 29 56 9 168 -86
477 204 952 650 1064 131 33 324 31 459 -5 96 -26 254 -107 328 -169 161 -135
264 -338 283 -560 8 -100 20 -132 56 -150 38 -20 68 -19 106 5 36 22 38 26 52
161 48 442 389 739 851 741 347 1 646 -193 796 -516 77 -168 103 -386 69 -582
-12 -74 -14 -106 -6 -126 24 -62 115 -81 163 -33 29 29 43 85 59 234 48 460
-200 918 -607 1120 -169 84 -334 118 -528 108 -375 -19 -690 -201 -867 -499
-18 -32 -36 -58 -39 -58 -3 0 -14 17 -25 37 -35 67 -130 187 -190 241 -128
117 -294 205 -465 247 -118 29 -338 41 -445 25z"/>
<path d="M1775 3492 c-42 -26 -57 -47 -69 -96 -8 -31 -74 -126 -241 -349
l-230 -307 -440 0 c-363 1 -444 3 -465 15 -83 48 -200 -22 -200 -119 0 -107
98 -170 195 -127 46 20 63 21 499 21 269 0 465 4 487 10 32 9 63 46 274 326
l239 316 312 -624 c243 -484 311 -629 307 -650 -8 -40 15 -95 51 -123 88 -67
206 -20 223 90 4 32 49 99 220 327 182 244 221 290 257 307 41 21 57 21 773
21 717 0 731 0 777 -21 71 -31 137 -11 176 54 27 43 26 116 0 149 -41 52 -128
73 -180 43 -21 -12 -143 -14 -770 -14 -627 0 -749 2 -770 14 -77 44 -200 -20
-200 -104 0 -16 -69 -116 -197 -288 -109 -144 -200 -263 -203 -263 -3 0 -143
277 -313 615 -229 460 -307 624 -307 651 0 41 -18 80 -54 113 -35 33 -110 39
-151 13z"/>
<path d="M3935 2355 c-16 -9 -328 -314 -692 -678 l-663 -662 -662 661 c-365
364 -673 667 -685 673 -39 20 -73 13 -109 -23 -27 -27 -34 -42 -34 -72 0 -38
16 -55 718 -756 486 -486 726 -719 745 -724 15 -3 39 -3 55 0 18 5 259 239
750 729 698 698 722 723 722 759 0 75 -81 127 -145 93z"/>
</g>
</svg>
